<svg width="34" height="34" viewBox="0 0 34 34" fill="none" xmlns="http://www.w3.org/2000/svg">
<g clip-path="url(#clip0_809_121)">
<path d="M34 17C34 7.61124 26.3888 0 17 0C7.61124 0 0 7.61124 0 17C0 24.9723 5.48896 31.6622 12.8935 33.4995V22.1952H9.38808V17H12.8935V14.7614C12.8935 8.97532 15.5122 6.2934 21.1929 6.2934C22.27 6.2934 24.1284 6.50488 24.8887 6.71568V11.4247C24.4875 11.3825 23.7905 11.3614 22.9248 11.3614C20.1375 11.3614 19.0604 12.4175 19.0604 15.1626V17H24.6133L23.6592 22.1952H19.0604V33.8756C27.4781 32.859 34.0007 25.6918 34.0007 17H34Z" fill="#0866FF"/>
<path d="M23.6589 22.1953L24.6129 17.0001H19.06V15.1627C19.06 12.4175 20.1371 11.3615 22.9245 11.3615C23.7901 11.3615 24.4871 11.3826 24.8883 11.4247V6.71574C24.1281 6.50426 22.2696 6.29346 21.1925 6.29346C15.5118 6.29346 12.8931 8.97538 12.8931 14.7615V17.0001H9.3877V22.1953H12.8931V33.4996C14.2082 33.826 15.5839 34.0001 16.9996 34.0001C17.6966 34.0001 18.3841 33.9572 19.0593 33.8756V22.1953H23.6582H23.6589Z" fill="white"/>
</g>
<defs>
<clipPath id="clip0_809_121">
<rect width="34" height="34" fill="white"/>
</clipPath>
</defs>
</svg>
